<?xml version="1.0" encoding="UTF-8" standalone="no"?>
<!DOCTYPE svg PUBLIC "-//W3C//DTD SVG 1.1//EN" "http://www.w3.org/Graphics/SVG/1.1/DTD/svg11.dtd">
<svg version="1.1" xmlns="http://www.w3.org/2000/svg" xmlns:xlink="http://www.w3.org/1999/xlink" preserveAspectRatio="xMidYMid meet" viewBox="0 0 40 100" width="40" height="100"><defs><path d="M37.76 87.51L20.3 79.79L2.83 87.51L9.5 100L31.09 100L37.76 87.51Z" id="e17eTgLykk"></path><path d="M39.43 43.44C39.43 27.73 30.73 14.99 20 14.99C9.27 14.99 0.57 27.73 0.57 43.44C0.57 59.15 9.27 71.89 20 95.85C30.73 71.89 39.43 59.15 39.43 43.44Z" id="c3j3Uo78xR"></path><path d="M26.08 11.19L32.17 21.3L20 21.3L7.83 21.3L13.92 11.19L20 1.09L26.08 11.19Z" id="d1wim2DIJO"></path><path d="M28.63 31.6C28.63 35.27 24.77 38.25 20 38.25C15.23 38.25 11.37 35.27 11.37 31.6C11.37 27.94 15.23 24.96 20 24.96C24.77 24.96 28.63 27.94 28.63 31.6Z" id="b34yzK7WIi"></path><path d="M28.63 47.95C28.63 51.62 24.77 54.6 20 54.6C15.23 54.6 11.37 51.62 11.37 47.95C11.37 44.28 15.23 41.3 20 41.3C24.77 41.3 28.63 44.28 28.63 47.95Z" id="e7S61CyUYI"></path><path d="M28.63 63.74C28.63 67.41 24.77 70.39 20 70.39C15.23 70.39 11.37 67.41 11.37 63.74C11.37 60.07 15.23 57.1 20 57.1C24.77 57.1 28.63 60.07 28.63 63.74Z" id="cYA4SykYh"></path></defs><g><g><g><use xlink:href="#e17eTgLykk" opacity="1" fill="#ffffff" fill-opacity="1"></use><g><use xlink:href="#e17eTgLykk" opacity="1" fill-opacity="0" stroke="#000000" stroke-width="1" stroke-opacity="1"></use></g></g><g><use xlink:href="#c3j3Uo78xR" opacity="1" fill="#ffffff" fill-opacity="1"></use><g><use xlink:href="#c3j3Uo78xR" opacity="1" fill-opacity="0" stroke="#000000" stroke-width="1" stroke-opacity="1"></use></g></g><g><use xlink:href="#d1wim2DIJO" opacity="1" fill="#ffffff" fill-opacity="1"></use><g><use xlink:href="#d1wim2DIJO" opacity="1" fill-opacity="0" stroke="#000000" stroke-width="1" stroke-opacity="1"></use></g></g><g><use xlink:href="#b34yzK7WIi" opacity="1" fill="#ffffff" fill-opacity="1"></use><g><use xlink:href="#b34yzK7WIi" opacity="1" fill-opacity="0" stroke="#000000" stroke-width="1" stroke-opacity="1"></use></g></g><g><use xlink:href="#e7S61CyUYI" opacity="1" fill="#ffffff" fill-opacity="1"></use><g><use xlink:href="#e7S61CyUYI" opacity="1" fill-opacity="0" stroke="#000000" stroke-width="1" stroke-opacity="1"></use></g></g><g><use xlink:href="#cYA4SykYh" opacity="1" fill="#ffffff" fill-opacity="1"></use><g><use xlink:href="#cYA4SykYh" opacity="1" fill-opacity="0" stroke="#000000" stroke-width="1" stroke-opacity="1"></use></g></g></g></g></svg>